<svg width="641" height="251" viewBox="0 0 641 251" fill="none" xmlns="http://www.w3.org/2000/svg">
<path d="M25.6 179.2H0V0H25.6V179.2Z" fill="black"/>
<path d="M242.58 179.2H209.044L138.9 107.008L69.012 179.2H35.476L122.26 89.6L35.476 0H69.012L242.58 179.2ZM242.58 0L138.9 107.008L122.26 89.6L209.044 0H242.58Z" fill="black"/>
<path d="M437.994 179.2H252.65V0H437.994V25.6H278.25V153.6H437.994V179.2ZM416.234 102.4H264.996V76.8H416.234V102.4Z" fill="black"/>
<path d="M640.998 179.2H525.542C513.083 179.2 501.819 176.896 491.75 172.288C481.681 167.68 472.977 161.28 465.638 153.088C458.47 144.896 452.923 135.424 448.998 124.672C445.073 113.749 443.11 102.059 443.11 89.6C443.11 77.312 445.073 65.792 448.998 55.04C452.923 44.1173 458.47 34.56 465.638 26.368C472.977 18.0053 481.681 11.52 491.75 6.912C501.819 2.304 513.083 0 525.542 0H640.998V25.6H525.542C513.766 25.6 503.611 28.5013 495.078 34.304C486.715 39.936 480.23 47.616 475.622 57.344C471.014 67.072 468.71 77.824 468.71 89.6C468.71 101.376 471.014 112.128 475.622 121.856C480.23 131.413 486.715 139.093 495.078 144.896C503.611 150.699 513.766 153.6 525.542 153.6H640.998V179.2Z" fill="black"/>
<path d="M2.4502 227.016V245.5H0V227.016H2.4502Z" fill="black"/>
<path d="M7.59941 234.696V245.5H5.25078V231.764H7.47246L7.59941 234.696ZM7.04082 238.111L6.06328 238.073C6.07174 237.134 6.21139 236.266 6.48223 235.471C6.75306 234.667 7.13392 233.968 7.6248 233.376C8.11569 232.784 8.69967 232.326 9.37676 232.005C10.0623 231.675 10.8198 231.51 11.6492 231.51C12.3263 231.51 12.9357 231.603 13.4773 231.789C14.019 231.967 14.4803 232.255 14.8611 232.652C15.2505 233.05 15.5467 233.566 15.7498 234.201C15.9529 234.827 16.0545 235.593 16.0545 236.499V245.5H13.6932V236.474C13.6932 235.754 13.5874 235.179 13.3758 234.747C13.1642 234.307 12.8553 233.99 12.449 233.795C12.0428 233.592 11.5434 233.49 10.951 233.49C10.367 233.49 9.83379 233.613 9.35137 233.858C8.87741 234.104 8.46693 234.442 8.11992 234.874C7.78138 235.306 7.51478 235.801 7.32012 236.359C7.13392 236.91 7.04082 237.493 7.04082 238.111Z" fill="black"/>
<path d="M24.0729 231.764V233.566H16.6461V231.764H24.0729ZM19.1598 228.425H21.5084V242.098C21.5084 242.563 21.5803 242.914 21.7242 243.151C21.8681 243.388 22.0543 243.545 22.2828 243.621C22.5113 243.697 22.7568 243.735 23.0191 243.735C23.2138 243.735 23.4169 243.718 23.6285 243.685C23.8486 243.642 24.0136 243.608 24.1236 243.583L24.1363 245.5C23.9501 245.559 23.7047 245.614 23.4 245.665C23.1038 245.724 22.7441 245.754 22.3209 245.754C21.7454 245.754 21.2164 245.64 20.734 245.411C20.2516 245.183 19.8665 244.802 19.5787 244.269C19.2994 243.727 19.1598 242.999 19.1598 242.085V228.425Z" fill="black"/>
<path d="M31.2279 245.754C30.2715 245.754 29.404 245.593 28.6254 245.271C27.8552 244.941 27.1908 244.48 26.6322 243.888C26.0821 243.295 25.6589 242.593 25.3627 241.78C25.0665 240.968 24.9184 240.079 24.9184 239.114V238.581C24.9184 237.464 25.0834 236.469 25.4135 235.598C25.7436 234.717 26.1921 233.973 26.7592 233.363C27.3262 232.754 27.9695 232.293 28.6889 231.979C29.4083 231.666 30.1531 231.51 30.9232 231.51C31.905 231.51 32.7514 231.679 33.4623 232.018C34.1817 232.356 34.7699 232.83 35.227 233.439C35.684 234.04 36.0225 234.751 36.2426 235.572C36.4626 236.385 36.5727 237.273 36.5727 238.238V239.292H26.3148V237.375H34.224V237.197C34.1902 236.588 34.0632 235.995 33.8432 235.42C33.6316 234.844 33.293 234.37 32.8275 233.998C32.362 233.626 31.7273 233.439 30.9232 233.439C30.39 233.439 29.8992 233.554 29.4506 233.782C29.002 234.002 28.6169 234.332 28.2953 234.772C27.9737 235.213 27.724 235.75 27.5463 236.385C27.3686 237.02 27.2797 237.752 27.2797 238.581V239.114C27.2797 239.766 27.3686 240.38 27.5463 240.955C27.7325 241.522 27.9991 242.021 28.3461 242.453C28.7016 242.885 29.129 243.223 29.6283 243.469C30.1361 243.714 30.7117 243.837 31.3549 243.837C32.1843 243.837 32.8868 243.668 33.4623 243.329C34.0378 242.991 34.5414 242.538 34.973 241.971L36.3949 243.101C36.0987 243.549 35.7221 243.977 35.265 244.383C34.808 244.789 34.2452 245.119 33.5766 245.373C32.9164 245.627 32.1335 245.754 31.2279 245.754Z" fill="black"/>
<path d="M40.3635 233.922V245.5H38.0148V231.764H40.3L40.3635 233.922ZM44.6545 231.688L44.6418 233.871C44.4471 233.829 44.2609 233.803 44.0832 233.795C43.9139 233.778 43.7193 233.77 43.4992 233.77C42.9576 233.77 42.4794 233.854 42.0646 234.023C41.6499 234.193 41.2987 234.43 41.0109 234.734C40.7232 235.039 40.4947 235.403 40.3254 235.826C40.1646 236.241 40.0588 236.698 40.008 237.197L39.3479 237.578C39.3479 236.749 39.4283 235.97 39.5891 235.242C39.7583 234.514 40.0165 233.871 40.3635 233.312C40.7105 232.745 41.1506 232.305 41.6838 231.992C42.2255 231.671 42.8687 231.51 43.6135 231.51C43.7827 231.51 43.9774 231.531 44.1975 231.573C44.4175 231.607 44.5699 231.645 44.6545 231.688Z" fill="black"/>
<path d="M50.7686 243.824C51.3271 243.824 51.8434 243.71 52.3174 243.481C52.7913 243.253 53.1807 242.94 53.4854 242.542C53.79 242.136 53.9635 241.674 54.0059 241.158H56.2402C56.1979 241.971 55.9229 242.728 55.415 243.431C54.9157 244.125 54.2598 244.688 53.4473 245.119C52.6348 245.542 51.7419 245.754 50.7686 245.754C49.736 245.754 48.8346 245.572 48.0645 245.208C47.3027 244.844 46.668 244.345 46.1602 243.71C45.6608 243.075 45.2842 242.347 45.0303 241.526C44.7848 240.697 44.6621 239.821 44.6621 238.898V238.365C44.6621 237.443 44.7848 236.571 45.0303 235.75C45.2842 234.921 45.6608 234.188 46.1602 233.554C46.668 232.919 47.3027 232.42 48.0645 232.056C48.8346 231.692 49.736 231.51 50.7686 231.51C51.8434 231.51 52.7829 231.73 53.5869 232.17C54.391 232.602 55.0215 233.194 55.4785 233.947C55.944 234.692 56.1979 235.538 56.2402 236.486H54.0059C53.9635 235.919 53.8027 235.407 53.5234 234.95C53.2526 234.493 52.8802 234.129 52.4062 233.858C51.9408 233.579 51.3949 233.439 50.7686 233.439C50.0492 233.439 49.444 233.583 48.9531 233.871C48.4707 234.15 48.0856 234.531 47.7979 235.014C47.5186 235.488 47.3154 236.017 47.1885 236.601C47.07 237.176 47.0107 237.764 47.0107 238.365V238.898C47.0107 239.499 47.07 240.092 47.1885 240.676C47.307 241.26 47.5059 241.789 47.7852 242.263C48.0729 242.737 48.458 243.118 48.9404 243.405C49.4313 243.685 50.0407 243.824 50.7686 243.824Z" fill="black"/>
<path d="M56.9588 238.784V238.492C56.9588 237.502 57.1027 236.584 57.3904 235.737C57.6782 234.882 58.0929 234.142 58.6346 233.516C59.1762 232.881 59.8322 232.39 60.6023 232.043C61.3725 231.688 62.2358 231.51 63.1922 231.51C64.157 231.51 65.0245 231.688 65.7947 232.043C66.5734 232.39 67.2335 232.881 67.7752 233.516C68.3253 234.142 68.7443 234.882 69.032 235.737C69.3198 236.584 69.4637 237.502 69.4637 238.492V238.784C69.4637 239.774 69.3198 240.693 69.032 241.539C68.7443 242.385 68.3253 243.126 67.7752 243.761C67.2335 244.387 66.5776 244.878 65.8074 245.233C65.0457 245.58 64.1824 245.754 63.2176 245.754C62.2527 245.754 61.3852 245.58 60.615 245.233C59.8449 244.878 59.1847 244.387 58.6346 243.761C58.0929 243.126 57.6782 242.385 57.3904 241.539C57.1027 240.693 56.9588 239.774 56.9588 238.784ZM59.3074 238.492V238.784C59.3074 239.47 59.3878 240.117 59.5486 240.727C59.7094 241.327 59.9507 241.861 60.2723 242.326C60.6023 242.792 61.0128 243.16 61.5037 243.431C61.9946 243.693 62.5659 243.824 63.2176 243.824C63.8608 243.824 64.4236 243.693 64.9061 243.431C65.3969 243.16 65.8032 242.792 66.1248 242.326C66.4464 241.861 66.6876 241.327 66.8484 240.727C67.0177 240.117 67.1023 239.47 67.1023 238.784V238.492C67.1023 237.815 67.0177 237.176 66.8484 236.575C66.6876 235.966 66.4422 235.428 66.1121 234.963C65.7905 234.489 65.3842 234.117 64.8934 233.846C64.4109 233.575 63.8439 233.439 63.1922 233.439C62.549 233.439 61.9819 233.575 61.491 233.846C61.0086 234.117 60.6023 234.489 60.2723 234.963C59.9507 235.428 59.7094 235.966 59.5486 236.575C59.3878 237.176 59.3074 237.815 59.3074 238.492Z" fill="black"/>
<path d="M73.4576 234.696V245.5H71.109V231.764H73.3307L73.4576 234.696ZM72.899 238.111L71.9215 238.073C71.9299 237.134 72.0696 236.266 72.3404 235.471C72.6113 234.667 72.9921 233.968 73.483 233.376C73.9739 232.784 74.5579 232.326 75.235 232.005C75.9205 231.675 76.678 231.51 77.5074 231.51C78.1845 231.51 78.7939 231.603 79.3355 231.789C79.8772 231.967 80.3385 232.255 80.7193 232.652C81.1087 233.05 81.4049 233.566 81.608 234.201C81.8111 234.827 81.9127 235.593 81.9127 236.499V245.5H79.5514V236.474C79.5514 235.754 79.4456 235.179 79.234 234.747C79.0224 234.307 78.7135 233.99 78.3072 233.795C77.901 233.592 77.4016 233.49 76.8092 233.49C76.2252 233.49 75.692 233.613 75.2096 233.858C74.7356 234.104 74.3251 234.442 73.9781 234.874C73.6396 235.306 73.373 235.801 73.1783 236.359C72.9921 236.91 72.899 237.493 72.899 238.111Z" fill="black"/>
<path d="M86.5287 234.696V245.5H84.1801V231.764H86.4018L86.5287 234.696ZM85.9701 238.111L84.9926 238.073C85.001 237.134 85.1407 236.266 85.4115 235.471C85.6824 234.667 86.0632 233.968 86.5541 233.376C87.045 232.784 87.629 232.326 88.3061 232.005C88.9916 231.675 89.7491 231.51 90.5785 231.51C91.2556 231.51 91.865 231.603 92.4066 231.789C92.9483 231.967 93.4096 232.255 93.7904 232.652C94.1798 233.05 94.476 233.566 94.6791 234.201C94.8822 234.827 94.9838 235.593 94.9838 236.499V245.5H92.6225V236.474C92.6225 235.754 92.5167 235.179 92.3051 234.747C92.0935 234.307 91.7846 233.99 91.3783 233.795C90.9721 233.592 90.4727 233.49 89.8803 233.49C89.2963 233.49 88.7631 233.613 88.2807 233.858C87.8067 234.104 87.3962 234.442 87.0492 234.874C86.7107 235.306 86.4441 235.801 86.2494 236.359C86.0632 236.91 85.9701 237.493 85.9701 238.111Z" fill="black"/>
<path d="M102.951 245.754C101.995 245.754 101.127 245.593 100.349 245.271C99.5786 244.941 98.9143 244.48 98.3557 243.888C97.8055 243.295 97.3824 242.593 97.0861 241.78C96.7899 240.968 96.6418 240.079 96.6418 239.114V238.581C96.6418 237.464 96.8068 236.469 97.1369 235.598C97.467 234.717 97.9156 233.973 98.4826 233.363C99.0497 232.754 99.6929 232.293 100.412 231.979C101.132 231.666 101.877 231.51 102.647 231.51C103.628 231.51 104.475 231.679 105.186 232.018C105.905 232.356 106.493 232.83 106.95 233.439C107.407 234.04 107.746 234.751 107.966 235.572C108.186 236.385 108.296 237.273 108.296 238.238V239.292H98.0383V237.375H105.947V237.197C105.914 236.588 105.787 235.995 105.567 235.42C105.355 234.844 105.016 234.37 104.551 233.998C104.085 233.626 103.451 233.439 102.647 233.439C102.113 233.439 101.623 233.554 101.174 233.782C100.725 234.002 100.34 234.332 100.019 234.772C99.6971 235.213 99.4475 235.75 99.2697 236.385C99.092 237.02 99.0031 237.752 99.0031 238.581V239.114C99.0031 239.766 99.092 240.38 99.2697 240.955C99.4559 241.522 99.7225 242.021 100.07 242.453C100.425 242.885 100.852 243.223 101.352 243.469C101.86 243.714 102.435 243.837 103.078 243.837C103.908 243.837 104.61 243.668 105.186 243.329C105.761 242.991 106.265 242.538 106.696 241.971L108.118 243.101C107.822 243.549 107.446 243.977 106.988 244.383C106.531 244.789 105.969 245.119 105.3 245.373C104.64 245.627 103.857 245.754 102.951 245.754Z" fill="black"/>
<path d="M115.235 243.824C115.794 243.824 116.31 243.71 116.784 243.481C117.258 243.253 117.647 242.94 117.952 242.542C118.257 242.136 118.43 241.674 118.473 241.158H120.707C120.665 241.971 120.39 242.728 119.882 243.431C119.382 244.125 118.727 244.688 117.914 245.119C117.102 245.542 116.209 245.754 115.235 245.754C114.203 245.754 113.301 245.572 112.531 245.208C111.77 244.844 111.135 244.345 110.627 243.71C110.128 243.075 109.751 242.347 109.497 241.526C109.252 240.697 109.129 239.821 109.129 238.898V238.365C109.129 237.443 109.252 236.571 109.497 235.75C109.751 234.921 110.128 234.188 110.627 233.554C111.135 232.919 111.77 232.42 112.531 232.056C113.301 231.692 114.203 231.51 115.235 231.51C116.31 231.51 117.25 231.73 118.054 232.17C118.858 232.602 119.488 233.194 119.945 233.947C120.411 234.692 120.665 235.538 120.707 236.486H118.473C118.43 235.919 118.27 235.407 117.99 234.95C117.719 234.493 117.347 234.129 116.873 233.858C116.408 233.579 115.862 233.439 115.235 233.439C114.516 233.439 113.911 233.583 113.42 233.871C112.938 234.15 112.552 234.531 112.265 235.014C111.985 235.488 111.782 236.017 111.655 236.601C111.537 237.176 111.478 237.764 111.478 238.365V238.898C111.478 239.499 111.537 240.092 111.655 240.676C111.774 241.26 111.973 241.789 112.252 242.263C112.54 242.737 112.925 243.118 113.407 243.405C113.898 243.685 114.507 243.824 115.235 243.824Z" fill="black"/>
<path d="M127.799 231.764V233.566H120.372V231.764H127.799ZM122.886 228.425H125.234V242.098C125.234 242.563 125.306 242.914 125.45 243.151C125.594 243.388 125.78 243.545 126.009 243.621C126.237 243.697 126.483 243.735 126.745 243.735C126.94 243.735 127.143 243.718 127.354 243.685C127.574 243.642 127.739 243.608 127.849 243.583L127.862 245.5C127.676 245.559 127.43 245.614 127.126 245.665C126.83 245.724 126.47 245.754 126.047 245.754C125.471 245.754 124.942 245.64 124.46 245.411C123.977 245.183 123.592 244.802 123.304 244.269C123.025 243.727 122.886 242.999 122.886 242.085V228.425Z" fill="black"/>
<path d="M131.805 231.764V245.5H129.444V231.764H131.805ZM129.266 228.12C129.266 227.739 129.38 227.418 129.609 227.155C129.846 226.893 130.193 226.762 130.65 226.762C131.099 226.762 131.441 226.893 131.678 227.155C131.924 227.418 132.046 227.739 132.046 228.12C132.046 228.484 131.924 228.797 131.678 229.06C131.441 229.313 131.099 229.44 130.65 229.44C130.193 229.44 129.846 229.313 129.609 229.06C129.38 228.797 129.266 228.484 129.266 228.12Z" fill="black"/>
<path d="M138.453 243.38L142.21 231.764H144.61L139.671 245.5H138.097L138.453 243.38ZM135.317 231.764L139.189 243.443L139.455 245.5H137.881L132.905 231.764H135.317Z" fill="black"/>
<path d="M151.092 245.754C150.136 245.754 149.268 245.593 148.489 245.271C147.719 244.941 147.055 244.48 146.496 243.888C145.946 243.295 145.523 242.593 145.227 241.78C144.931 240.968 144.782 240.079 144.782 239.114V238.581C144.782 237.464 144.947 236.469 145.278 235.598C145.608 234.717 146.056 233.973 146.623 233.363C147.19 232.754 147.834 232.293 148.553 231.979C149.272 231.666 150.017 231.51 150.787 231.51C151.769 231.51 152.615 231.679 153.326 232.018C154.046 232.356 154.634 232.83 155.091 233.439C155.548 234.04 155.887 234.751 156.107 235.572C156.327 236.385 156.437 237.273 156.437 238.238V239.292H146.179V237.375H154.088V237.197C154.054 236.588 153.927 235.995 153.707 235.42C153.496 234.844 153.157 234.37 152.692 233.998C152.226 233.626 151.591 233.439 150.787 233.439C150.254 233.439 149.763 233.554 149.315 233.782C148.866 234.002 148.481 234.332 148.159 234.772C147.838 235.213 147.588 235.75 147.41 236.385C147.233 237.02 147.144 237.752 147.144 238.581V239.114C147.144 239.766 147.233 240.38 147.41 240.955C147.597 241.522 147.863 242.021 148.21 242.453C148.566 242.885 148.993 243.223 149.492 243.469C150 243.714 150.576 243.837 151.219 243.837C152.048 243.837 152.751 243.668 153.326 243.329C153.902 242.991 154.405 242.538 154.837 241.971L156.259 243.101C155.963 243.549 155.586 243.977 155.129 244.383C154.672 244.789 154.109 245.119 153.441 245.373C152.78 245.627 151.998 245.754 151.092 245.754Z" fill="black"/>
<path d="M175.127 243.507V245.5H165.339V243.507H175.127ZM165.834 227.016V245.5H163.384V227.016H165.834ZM173.832 234.963V236.956H165.339V234.963H173.832ZM175 227.016V229.021H165.339V227.016H175Z" fill="black"/>
<path d="M178.092 231.764L181.101 236.766L184.148 231.764H186.903L182.409 238.543L187.043 245.5H184.326L181.152 240.346L177.978 245.5H175.249L179.87 238.543L175.388 231.764H178.092Z" fill="black"/>
<path d="M193.347 243.824C193.906 243.824 194.422 243.71 194.896 243.481C195.37 243.253 195.759 242.94 196.064 242.542C196.369 242.136 196.542 241.674 196.584 241.158H198.819C198.776 241.971 198.501 242.728 197.994 243.431C197.494 244.125 196.838 244.688 196.026 245.119C195.213 245.542 194.32 245.754 193.347 245.754C192.315 245.754 191.413 245.572 190.643 245.208C189.881 244.844 189.246 244.345 188.739 243.71C188.239 243.075 187.863 242.347 187.609 241.526C187.363 240.697 187.241 239.821 187.241 238.898V238.365C187.241 237.443 187.363 236.571 187.609 235.75C187.863 234.921 188.239 234.188 188.739 233.554C189.246 232.919 189.881 232.42 190.643 232.056C191.413 231.692 192.315 231.51 193.347 231.51C194.422 231.51 195.361 231.73 196.165 232.17C196.969 232.602 197.6 233.194 198.057 233.947C198.523 234.692 198.776 235.538 198.819 236.486H196.584C196.542 235.919 196.381 235.407 196.102 234.95C195.831 234.493 195.459 234.129 194.985 233.858C194.519 233.579 193.973 233.439 193.347 233.439C192.628 233.439 192.023 233.583 191.532 233.871C191.049 234.15 190.664 234.531 190.376 235.014C190.097 235.488 189.894 236.017 189.767 236.601C189.649 237.176 189.589 237.764 189.589 238.365V238.898C189.589 239.499 189.649 240.092 189.767 240.676C189.885 241.26 190.084 241.789 190.364 242.263C190.651 242.737 191.037 243.118 191.519 243.405C192.01 243.685 192.619 243.824 193.347 243.824Z" fill="black"/>
<path d="M202.508 226V245.5H200.159V226H202.508ZM201.949 238.111L200.972 238.073C200.98 237.134 201.12 236.266 201.391 235.471C201.662 234.667 202.043 233.968 202.533 233.376C203.024 232.784 203.608 232.326 204.285 232.005C204.971 231.675 205.728 231.51 206.558 231.51C207.235 231.51 207.844 231.603 208.386 231.789C208.928 231.967 209.389 232.255 209.77 232.652C210.159 233.05 210.455 233.566 210.658 234.201C210.862 234.827 210.963 235.593 210.963 236.499V245.5H208.602V236.474C208.602 235.754 208.496 235.179 208.284 234.747C208.073 234.307 207.764 233.99 207.358 233.795C206.951 233.592 206.452 233.49 205.86 233.49C205.276 233.49 204.742 233.613 204.26 233.858C203.786 234.104 203.376 234.442 203.029 234.874C202.69 235.306 202.423 235.801 202.229 236.359C202.043 236.91 201.949 237.493 201.949 238.111Z" fill="black"/>
<path d="M221.279 243.151V236.08C221.279 235.538 221.169 235.069 220.949 234.671C220.738 234.265 220.416 233.951 219.984 233.731C219.553 233.511 219.02 233.401 218.385 233.401C217.792 233.401 217.272 233.503 216.823 233.706C216.383 233.909 216.036 234.176 215.782 234.506C215.537 234.836 215.414 235.191 215.414 235.572H213.065C213.065 235.081 213.192 234.595 213.446 234.112C213.7 233.63 214.064 233.194 214.538 232.805C215.021 232.407 215.596 232.094 216.265 231.865C216.942 231.628 217.695 231.51 218.524 231.51C219.523 231.51 220.403 231.679 221.165 232.018C221.935 232.356 222.536 232.868 222.968 233.554C223.408 234.231 223.628 235.081 223.628 236.105V242.504C223.628 242.961 223.666 243.448 223.742 243.964C223.827 244.48 223.95 244.924 224.11 245.297V245.5H221.66C221.542 245.229 221.449 244.869 221.381 244.421C221.313 243.964 221.279 243.541 221.279 243.151ZM221.686 237.172L221.711 238.822H219.337C218.668 238.822 218.072 238.877 217.547 238.987C217.022 239.089 216.582 239.245 216.227 239.457C215.871 239.669 215.6 239.935 215.414 240.257C215.228 240.57 215.135 240.938 215.135 241.361C215.135 241.793 215.232 242.187 215.427 242.542C215.621 242.897 215.913 243.181 216.303 243.393C216.701 243.596 217.187 243.697 217.763 243.697C218.482 243.697 219.117 243.545 219.667 243.24C220.217 242.936 220.653 242.563 220.975 242.123C221.305 241.683 221.482 241.256 221.508 240.841L222.511 241.971C222.451 242.326 222.291 242.72 222.028 243.151C221.766 243.583 221.415 243.998 220.975 244.396C220.543 244.785 220.027 245.111 219.426 245.373C218.833 245.627 218.165 245.754 217.42 245.754C216.489 245.754 215.672 245.572 214.97 245.208C214.276 244.844 213.734 244.357 213.345 243.748C212.964 243.13 212.773 242.44 212.773 241.679C212.773 240.942 212.917 240.295 213.205 239.736C213.493 239.169 213.908 238.7 214.449 238.327C214.991 237.946 215.643 237.659 216.404 237.464C217.166 237.269 218.017 237.172 218.956 237.172H221.686Z" fill="black"/>
<path d="M228.371 234.696V245.5H226.022V231.764H228.244L228.371 234.696ZM227.812 238.111L226.835 238.073C226.843 237.134 226.983 236.266 227.254 235.471C227.525 234.667 227.905 233.968 228.396 233.376C228.887 232.784 229.471 232.326 230.148 232.005C230.834 231.675 231.591 231.51 232.421 231.51C233.098 231.51 233.707 231.603 234.249 231.789C234.79 231.967 235.252 232.255 235.633 232.652C236.022 233.05 236.318 233.566 236.521 234.201C236.724 234.827 236.826 235.593 236.826 236.499V245.5H234.465V236.474C234.465 235.754 234.359 235.179 234.147 234.747C233.936 234.307 233.627 233.99 233.221 233.795C232.814 233.592 232.315 233.49 231.722 233.49C231.138 233.49 230.605 233.613 230.123 233.858C229.649 234.104 229.238 234.442 228.891 234.874C228.553 235.306 228.286 235.801 228.092 236.359C227.905 236.91 227.812 237.493 227.812 238.111Z" fill="black"/>
<path d="M247.993 231.764H250.126V245.208C250.126 246.418 249.88 247.451 249.389 248.306C248.898 249.16 248.213 249.808 247.333 250.248C246.461 250.697 245.454 250.921 244.311 250.921C243.837 250.921 243.279 250.845 242.635 250.692C242.001 250.549 241.374 250.299 240.756 249.943C240.147 249.596 239.635 249.127 239.22 248.534L240.452 247.138C241.027 247.832 241.628 248.314 242.254 248.585C242.889 248.856 243.516 248.991 244.133 248.991C244.878 248.991 245.521 248.852 246.063 248.572C246.605 248.293 247.024 247.878 247.32 247.328C247.625 246.786 247.777 246.118 247.777 245.322V234.785L247.993 231.764ZM238.535 238.784V238.518C238.535 237.468 238.657 236.516 238.903 235.661C239.157 234.798 239.517 234.057 239.982 233.439C240.456 232.822 241.027 232.348 241.696 232.018C242.365 231.679 243.118 231.51 243.956 231.51C244.819 231.51 245.572 231.662 246.215 231.967C246.867 232.263 247.417 232.699 247.866 233.274C248.323 233.841 248.683 234.527 248.945 235.331C249.207 236.135 249.389 237.045 249.491 238.061V239.229C249.398 240.236 249.216 241.141 248.945 241.945C248.683 242.749 248.323 243.435 247.866 244.002C247.417 244.569 246.867 245.005 246.215 245.31C245.564 245.606 244.802 245.754 243.93 245.754C243.109 245.754 242.365 245.58 241.696 245.233C241.036 244.886 240.469 244.4 239.995 243.773C239.521 243.147 239.157 242.411 238.903 241.564C238.657 240.71 238.535 239.783 238.535 238.784ZM240.883 238.518V238.784C240.883 239.47 240.951 240.113 241.087 240.714C241.23 241.315 241.446 241.844 241.734 242.301C242.03 242.758 242.407 243.118 242.864 243.38C243.321 243.634 243.867 243.761 244.502 243.761C245.28 243.761 245.923 243.596 246.431 243.266C246.939 242.936 247.341 242.5 247.637 241.958C247.942 241.416 248.179 240.828 248.348 240.193V237.134C248.255 236.668 248.111 236.22 247.917 235.788C247.73 235.348 247.485 234.959 247.18 234.62C246.884 234.273 246.516 233.998 246.076 233.795C245.636 233.592 245.119 233.49 244.527 233.49C243.884 233.49 243.329 233.626 242.864 233.896C242.407 234.159 242.03 234.523 241.734 234.988C241.446 235.445 241.23 235.979 241.087 236.588C240.951 237.189 240.883 237.832 240.883 238.518Z" fill="black"/>
<path d="M258.093 245.754C257.137 245.754 256.269 245.593 255.491 245.271C254.72 244.941 254.056 244.48 253.497 243.888C252.947 243.295 252.524 242.593 252.228 241.78C251.932 240.968 251.784 240.079 251.784 239.114V238.581C251.784 237.464 251.949 236.469 252.279 235.598C252.609 234.717 253.057 233.973 253.624 233.363C254.191 232.754 254.835 232.293 255.554 231.979C256.274 231.666 257.018 231.51 257.788 231.51C258.77 231.51 259.617 231.679 260.328 232.018C261.047 232.356 261.635 232.83 262.092 233.439C262.549 234.04 262.888 234.751 263.108 235.572C263.328 236.385 263.438 237.273 263.438 238.238V239.292H253.18V237.375H261.089V237.197C261.055 236.588 260.928 235.995 260.708 235.42C260.497 234.844 260.158 234.37 259.693 233.998C259.227 233.626 258.593 233.439 257.788 233.439C257.255 233.439 256.764 233.554 256.316 233.782C255.867 234.002 255.482 234.332 255.161 234.772C254.839 235.213 254.589 235.75 254.412 236.385C254.234 237.02 254.145 237.752 254.145 238.581V239.114C254.145 239.766 254.234 240.38 254.412 240.955C254.598 241.522 254.864 242.021 255.211 242.453C255.567 242.885 255.994 243.223 256.494 243.469C257.001 243.714 257.577 243.837 258.22 243.837C259.05 243.837 259.752 243.668 260.328 243.329C260.903 242.991 261.407 242.538 261.838 241.971L263.26 243.101C262.964 243.549 262.587 243.977 262.13 244.383C261.673 244.789 261.11 245.119 260.442 245.373C259.782 245.627 258.999 245.754 258.093 245.754Z" fill="black"/>
<path d="M281.544 239.622H283.981C283.854 240.79 283.52 241.835 282.979 242.758C282.437 243.68 281.671 244.412 280.681 244.954C279.69 245.487 278.455 245.754 276.974 245.754C275.89 245.754 274.904 245.551 274.016 245.145C273.135 244.738 272.378 244.163 271.743 243.418C271.108 242.665 270.618 241.763 270.271 240.714C269.932 239.656 269.763 238.479 269.763 237.185V235.344C269.763 234.049 269.932 232.877 270.271 231.827C270.618 230.769 271.113 229.864 271.756 229.11C272.408 228.357 273.19 227.777 274.104 227.371C275.019 226.965 276.047 226.762 277.189 226.762C278.586 226.762 279.767 227.024 280.731 227.549C281.696 228.074 282.445 228.801 282.979 229.732C283.52 230.655 283.854 231.726 283.981 232.944H281.544C281.425 232.081 281.205 231.34 280.884 230.723C280.562 230.096 280.105 229.614 279.513 229.275C278.92 228.937 278.146 228.768 277.189 228.768C276.368 228.768 275.645 228.924 275.019 229.237C274.401 229.55 273.88 229.995 273.457 230.57C273.042 231.146 272.729 231.836 272.518 232.64C272.306 233.444 272.2 234.337 272.2 235.318V237.185C272.2 238.09 272.293 238.941 272.479 239.736C272.674 240.532 272.966 241.23 273.355 241.831C273.745 242.432 274.24 242.906 274.841 243.253C275.442 243.591 276.153 243.761 276.974 243.761C278.015 243.761 278.844 243.596 279.462 243.266C280.08 242.936 280.545 242.462 280.858 241.844C281.18 241.226 281.409 240.485 281.544 239.622Z" fill="black"/>
<path d="M288.217 226V245.5H285.855V226H288.217Z" fill="black"/>
<path d="M290.065 238.784V238.492C290.065 237.502 290.209 236.584 290.497 235.737C290.784 234.882 291.199 234.142 291.741 233.516C292.282 232.881 292.938 232.39 293.709 232.043C294.479 231.688 295.342 231.51 296.298 231.51C297.263 231.51 298.131 231.688 298.901 232.043C299.68 232.39 300.34 232.881 300.881 233.516C301.432 234.142 301.851 234.882 302.138 235.737C302.426 236.584 302.57 237.502 302.57 238.492V238.784C302.57 239.774 302.426 240.693 302.138 241.539C301.851 242.385 301.432 243.126 300.881 243.761C300.34 244.387 299.684 244.878 298.914 245.233C298.152 245.58 297.289 245.754 296.324 245.754C295.359 245.754 294.491 245.58 293.721 245.233C292.951 244.878 292.291 244.387 291.741 243.761C291.199 243.126 290.784 242.385 290.497 241.539C290.209 240.693 290.065 239.774 290.065 238.784ZM292.414 238.492V238.784C292.414 239.47 292.494 240.117 292.655 240.727C292.816 241.327 293.057 241.861 293.379 242.326C293.709 242.792 294.119 243.16 294.61 243.431C295.101 243.693 295.672 243.824 296.324 243.824C296.967 243.824 297.53 243.693 298.012 243.431C298.503 243.16 298.909 242.792 299.231 242.326C299.553 241.861 299.794 241.327 299.955 240.727C300.124 240.117 300.209 239.47 300.209 238.784V238.492C300.209 237.815 300.124 237.176 299.955 236.575C299.794 235.966 299.548 235.428 299.218 234.963C298.897 234.489 298.49 234.117 298 233.846C297.517 233.575 296.95 233.439 296.298 233.439C295.655 233.439 295.088 233.575 294.597 233.846C294.115 234.117 293.709 234.489 293.379 234.963C293.057 235.428 292.816 235.966 292.655 236.575C292.494 237.176 292.414 237.815 292.414 238.492Z" fill="black"/>
<path d="M312.62 242.326V231.764H314.981V245.5H312.734L312.62 242.326ZM313.064 239.432L314.041 239.406C314.041 240.32 313.944 241.167 313.749 241.945C313.563 242.715 313.259 243.384 312.835 243.951C312.412 244.518 311.858 244.963 311.172 245.284C310.487 245.597 309.653 245.754 308.671 245.754C308.003 245.754 307.389 245.657 306.83 245.462C306.28 245.267 305.806 244.967 305.409 244.561C305.011 244.154 304.702 243.625 304.482 242.974C304.27 242.322 304.164 241.539 304.164 240.625V231.764H306.513V240.65C306.513 241.268 306.581 241.78 306.716 242.187C306.86 242.584 307.051 242.902 307.288 243.139C307.533 243.367 307.804 243.528 308.1 243.621C308.405 243.714 308.718 243.761 309.039 243.761C310.038 243.761 310.829 243.57 311.413 243.189C311.997 242.8 312.416 242.28 312.67 241.628C312.933 240.968 313.064 240.236 313.064 239.432Z" fill="black"/>
<path d="M325.919 242.834V226H328.28V245.5H326.122L325.919 242.834ZM316.677 238.784V238.518C316.677 237.468 316.804 236.516 317.058 235.661C317.32 234.798 317.688 234.057 318.162 233.439C318.645 232.822 319.216 232.348 319.876 232.018C320.545 231.679 321.29 231.51 322.111 231.51C322.974 231.51 323.727 231.662 324.37 231.967C325.022 232.263 325.572 232.699 326.021 233.274C326.478 233.841 326.837 234.527 327.1 235.331C327.362 236.135 327.544 237.045 327.646 238.061V239.229C327.553 240.236 327.371 241.141 327.1 241.945C326.837 242.749 326.478 243.435 326.021 244.002C325.572 244.569 325.022 245.005 324.37 245.31C323.719 245.606 322.957 245.754 322.085 245.754C321.281 245.754 320.545 245.58 319.876 245.233C319.216 244.886 318.645 244.4 318.162 243.773C317.688 243.147 317.32 242.411 317.058 241.564C316.804 240.71 316.677 239.783 316.677 238.784ZM319.038 238.518V238.784C319.038 239.47 319.106 240.113 319.241 240.714C319.385 241.315 319.605 241.844 319.902 242.301C320.198 242.758 320.574 243.118 321.031 243.38C321.488 243.634 322.034 243.761 322.669 243.761C323.448 243.761 324.087 243.596 324.586 243.266C325.094 242.936 325.5 242.5 325.805 241.958C326.11 241.416 326.347 240.828 326.516 240.193V237.134C326.414 236.668 326.266 236.22 326.071 235.788C325.885 235.348 325.64 234.959 325.335 234.62C325.039 234.273 324.671 233.998 324.231 233.795C323.799 233.592 323.287 233.49 322.695 233.49C322.051 233.49 321.497 233.626 321.031 233.896C320.574 234.159 320.198 234.523 319.902 234.988C319.605 235.445 319.385 235.979 319.241 236.588C319.106 237.189 319.038 237.832 319.038 238.518Z" fill="black"/>
</svg>
