<svg width="641" height="180" viewBox="0 0 641 180" fill="none" xmlns="http://www.w3.org/2000/svg">
<path d="M25.6 179.2H0V0H25.6V179.2Z" fill="black"/>
<path d="M242.58 179.2H209.044L138.9 107.008L69.012 179.2H35.476L122.26 89.6L35.476 0H69.012L242.58 179.2ZM242.58 0L138.9 107.008L122.26 89.6L209.044 0H242.58Z" fill="black"/>
<path d="M437.994 179.2H252.65V0H437.994V25.6H278.25V153.6H437.994V179.2ZM416.234 102.4H264.996V76.8H416.234V102.4Z" fill="black"/>
<path d="M640.998 179.2H525.542C513.083 179.2 501.819 176.896 491.75 172.288C481.681 167.68 472.977 161.28 465.638 153.088C458.47 144.896 452.923 135.424 448.998 124.672C445.073 113.749 443.11 102.059 443.11 89.6C443.11 77.312 445.073 65.792 448.998 55.04C452.923 44.1173 458.47 34.56 465.638 26.368C472.977 18.0053 481.681 11.52 491.75 6.912C501.819 2.304 513.083 0 525.542 0H640.998V25.6H525.542C513.766 25.6 503.611 28.5013 495.078 34.304C486.715 39.936 480.23 47.616 475.622 57.344C471.014 67.072 468.71 77.824 468.71 89.6C468.71 101.376 471.014 112.128 475.622 121.856C480.23 131.413 486.715 139.093 495.078 144.896C503.611 150.699 513.766 153.6 525.542 153.6H640.998V179.2Z" fill="black"/>
</svg>
